<?xml version="1.0" encoding="UTF-8"?>
<svg version="1.1" xmlns="http://www.w3.org/2000/svg" width="1024" height="1024">
<path d="M0 0 C337.92 0 675.84 0 1024 0 C1024 337.92 1024 675.84 1024 1024 C686.08 1024 348.16 1024 0 1024 C0 686.08 0 348.16 0 0 Z " fill="#0E101F" transform="translate(0,0)"/>
<path d="M0 0 C78.87 0 157.74 0 239 0 C239 7.92 239 15.84 239 24 C247.25 24 255.5 24 264 24 C264 31.92 264 39.84 264 48 C271.92 48 279.84 48 288 48 C288 55.92 288 63.84 288 72 C295.92 72 303.84 72 312 72 C312 102.36 312 132.72 312 164 C290.22 164 268.44 164 246 164 C246 143.21 246 122.42 246 101 C243.03 101 240.06 101 237 101 C237 96.38 237 91.76 237 87 C234.36 87 231.72 87 229 87 C229 112.74 229 138.48 229 165 C155.08 165 81.16 165 5 165 C5 89 5 89 6 87 C3.03 87 0.06 87 -3 87 C-3 91.62 -3 96.24 -3 101 C-5.64 101 -8.28 101 -11 101 C-11 122.12 -11 143.24 -11 165 C-32.78 165 -54.56 165 -77 165 C-77 135.09240706 -77 135.09240706 -76.78125 121.8046875 C-76.75865559 120.33969384 -76.73624 118.87469741 -76.71398926 117.40969849 C-76.65655865 113.65845886 -76.59679549 109.90726042 -76.53643799 106.15606689 C-76.4746229 102.28635941 -76.4151633 98.41661568 -76.35546875 94.546875 C-76.23920347 87.03121364 -76.12023935 79.51559903 -76 72 C-67.75 72 -59.5 72 -51 72 C-51 64.08 -51 56.16 -51 48 C-42.75 48 -34.5 48 -26 48 C-26 40.08 -26 32.16 -26 24 C-17.42 24 -8.84 24 0 24 C0 16.08 0 8.16 0 0 Z " fill="#05E8E2" transform="translate(399,595)"/>
<path d="M0 0 C50.82 0 101.64 0 154 0 C154 8.58 154 17.16 154 26 C162.58 26 171.16 26 180 26 C180 88.37 180 150.74 180 215 C112.02 215 44.04 215 -26 215 C-26 152.63 -26 90.26 -26 26 C-17.42 26 -8.84 26 0 26 C0 17.42 0 8.84 0 0 Z " fill="#D858F3" transform="translate(446,329)"/>
<path d="M0 0 C50.82 0 101.64 0 154 0 C154.33 8.91 154.66 17.82 155 27 C103.52 27 52.04 27 -1 27 C-1 89.04 -1 151.08 -1 215 C-9.25 215 -17.5 215 -26 215 C-26 152.63 -26 90.26 -26 26 C-17.42 26 -8.84 26 0 26 C0 17.42 0 8.84 0 0 Z " fill="#8A22D9" transform="translate(446,329)"/>
<path d="M0 0 C1.92875977 0.00483398 1.92875977 0.00483398 3.89648438 0.00976562 C5.2343757 0.01811823 6.57226632 0.02658314 7.91015625 0.03515625 C9.27538899 0.04017966 10.64062351 0.04474108 12.00585938 0.04882812 C15.32817082 0.06056774 18.65039033 0.07698946 21.97265625 0.09765625 C21.97265625 0.75765625 21.97265625 1.41765625 21.97265625 2.09765625 C167.83265625 2.09765625 313.69265625 2.09765625 463.97265625 2.09765625 C463.97265625 8.22579593 463.91788828 13.21621249 462.97265625 19.09765625 C461.43512171 20.63519079 460.0218344 20.23757008 457.87779427 20.25503349 C456.98950711 20.26464171 456.10121996 20.27424992 455.18601501 20.28414929 C453.70466558 20.29248785 453.70466558 20.29248785 452.19338989 20.30099487 C450.63158058 20.31554256 450.63158058 20.31554256 449.03821957 20.33038414 C445.51785297 20.36176042 441.99747569 20.38578761 438.47705078 20.40966797 C435.96506871 20.43004118 433.45308931 20.45074624 430.94111252 20.4717598 C424.06726899 20.52752181 417.19339346 20.57605837 410.31948233 20.62262201 C405.96979376 20.65216774 401.62012224 20.68386004 397.27045059 20.71578598 C335.15806638 21.1689416 273.04655762 21.25343697 210.93276563 21.2271181 C200.0712216 21.22260336 189.2096884 21.22351536 178.34814453 21.22802734 C114.21791025 21.25398239 50.09536935 21.22130145 -14.02734375 20.09765625 C-13.99479167 18.046875 -13.96223958 15.99609375 -13.9296875 13.9453125 C-13.82173191 12.08033484 -13.82173191 12.08033484 -15.02734375 11.09765625 C-15.26614972 3.57526819 -15.26614972 3.57526819 -14.02734375 1.09765625 C-9.33247533 0.16734347 -4.77518972 -0.02122307 0 0 Z " fill="#3B1454" transform="translate(291.02734375,764.90234375)"/>
<path d="M0 0 C3.47914941 -0.02887814 6.95826831 -0.04675687 10.4375 -0.0625 C11.92733398 -0.07506836 11.92733398 -0.07506836 13.44726562 -0.08789062 C14.39150391 -0.09111328 15.33574219 -0.09433594 16.30859375 -0.09765625 C17.62041626 -0.10551147 17.62041626 -0.10551147 18.95874023 -0.11352539 C21 0 21 0 22 1 C22 17.83 22 34.66 22 52 C88.33 52 154.66 52 223 52 C223 60.58 223 69.16 223 78 C149.08 78 75.16 78 -1 78 C-1 2 -1 2 0 0 Z " fill="#AF39ED" transform="translate(405,682)"/>
<path d="M0 0 C50.82 0 101.64 0 154 0 C154.33 8.91 154.66 17.82 155 27 C103.85 27 52.7 27 0 27 C0 18.09 0 9.18 0 0 Z " fill="#04E9E0" transform="translate(446,329)"/>
<path d="M0 0 C39.6 0 79.2 0 120 0 C120 10.89 120 21.78 120 33 C80.4 33 40.8 33 0 33 C0 22.11 0 11.22 0 0 Z " fill="#7D17CC" transform="translate(462,553)"/>
<path d="M0 0 C157.41 0 314.82 0 477 0 C477 2.31 477 4.62 477 7 C319.59 7 162.18 7 0 7 C0 4.69 0 2.38 0 0 Z " fill="#A916E7" transform="translate(277,768)"/>
<path d="M0 0 C7.26 0 14.52 0 22 0 C22 16.17 22 32.34 22 49 C0.22 49 -21.56 49 -44 49 C-44 40.42 -44 31.84 -44 23 C-29.48 23 -14.96 23 0 23 C0 15.41 0 7.82 0 0 Z " fill="#AF37EC" transform="translate(366,711)"/>
<path d="M0 0 C6.93 0 13.86 0 21 0 C21 7.92 21 15.84 21 24 C35.85 24 50.7 24 66 24 C66 32.25 66 40.5 66 49 C44.22 49 22.44 49 0 49 C0 32.83 0 16.66 0 0 Z " fill="#AC39EC" transform="translate(645,710)"/>
<path d="M0 0 C78.87 0 157.74 0 239 0 C239 7.92 239 15.84 239 24 C236.36 24 233.72 24 231 24 C231 18.39 231 12.78 231 7 C157.41 7 83.82 7 8 7 C8 12.61 8 18.22 8 24 C5.69 24 3.38 24 1 24 C0.67 23.67 0.34 23.34 0 23 C0 15.41 0 7.82 0 0 Z " fill="#13FEFB" transform="translate(399,595)"/>
<path d="M0 0 C9.9 0 19.8 0 30 0 C30 19.47 30 38.94 30 59 C20.1 59 10.2 59 0 59 C0 39.53 0 20.06 0 0 Z " fill="#DD58F7" transform="translate(639,430)"/>
<path d="M0 0 C9.9 0 19.8 0 30 0 C30 19.47 30 38.94 30 59 C20.1 59 10.2 59 0 59 C0 39.53 0 20.06 0 0 Z " fill="#A034E3" transform="translate(377,430)"/>
<path d="M0 0 C7.92 0 15.84 0 24 0 C24 22.11 24 44.22 24 67 C16.08 67 8.16 67 0 67 C0 44.89 0 22.78 0 0 Z " fill="#157BC4" transform="translate(323,667)"/>
<path d="M0 0 C2.64 0 5.28 0 8 0 C8 10.56 8 21.12 8 32 C-24.01 32 -56.02 32 -89 32 C-89 28.04 -89 24.08 -89 20 C-59.63 20 -30.26 20 0 20 C0 13.4 0 6.8 0 0 Z " fill="#D654ED" transform="translate(574,554)"/>
<path d="M0 0 C7.92 0 15.84 0 24 0 C24.06940037 23.66075149 24.12295998 47.32147853 24.15543652 70.98231125 C24.17091568 81.96806042 24.19202526 92.95374525 24.22631836 103.93945312 C24.25618857 113.5128519 24.27556736 123.0862041 24.28226548 132.65964818 C24.28618177 137.73029804 24.29540739 142.80081461 24.31719017 147.87142181 C24.33751775 152.64183317 24.34384136 157.41205601 24.33932304 162.18250656 C24.34014992 163.93529916 24.34613773 165.68809791 24.35761642 167.44085312 C24.37250239 169.83065461 24.36896816 172.21974069 24.36076355 174.60955811 C24.36950207 175.30605933 24.3782406 176.00256055 24.38724393 176.72016788 C24.35911356 179.74337716 24.11716328 181.78394437 22.66495228 184.46190262 C21 186 21 186 18 186 C18 126.93 18 67.86 18 7 C12.06 7 6.12 7 0 7 C0 4.69 0 2.38 0 0 Z " fill="#FA6CFD" transform="translate(600,357)"/>
<path d="M0 0 C5.94 0 11.88 0 18 0 C18 2.31 18 4.62 18 7 C13.41466617 7.80917656 10.66958927 7.93391785 6 7 C6 66.4 6 125.8 6 187 C4.02 187 2.04 187 0 187 C0 125.29 0 63.58 0 0 Z " fill="#A430EA" transform="translate(421,356)"/>
<path d="M0 0 C11.55 0 23.1 0 35 0 C35 11.22 35 22.44 35 34 C23.45 34 11.9 34 0 34 C0 22.78 0 11.56 0 0 Z " fill="#0C0C1A" transform="translate(553,423)"/>
<path d="M0 0 C10.89 0 21.78 0 33 0 C33 10.56 33 21.12 33 32 C22.11 32 11.22 32 0 32 C0 21.44 0 10.88 0 0 Z " fill="#0D0B1D" transform="translate(462,424)"/>
<path d="M0 0 C6.6 0.33 13.2 0.66 20 1 C20 17.5 20 34 20 51 C13.4 51 6.8 51 0 51 C0 34.17 0 17.34 0 0 Z " fill="#AD36EC" transform="translate(405,683)"/>
<path d="M0 0 C3.47914941 -0.02887814 6.95826831 -0.04675687 10.4375 -0.0625 C11.92733398 -0.07506836 11.92733398 -0.07506836 13.44726562 -0.08789062 C14.39150391 -0.09111328 15.33574219 -0.09433594 16.30859375 -0.09765625 C17.62041626 -0.10551147 17.62041626 -0.10551147 18.95874023 -0.11352539 C21 0 21 0 22 1 C22 26.08 22 51.16 22 77 C88.33 77 154.66 77 223 77 C223 77.33 223 77.66 223 78 C149.08 78 75.16 78 -1 78 C-1 52.92 -1 27.84 -1 2 C-0.67 2 -0.34 2 0 2 C0 18.5 0 35 0 52 C6.6 52 13.2 52 20 52 C20 35.5 20 19 20 2 C15.71 2 11.42 2 7 2 C4.65866165 1.72854048 2.31725975 1.43111809 0 1 C0 0.67 0 0.34 0 0 Z " fill="#7B18BA" transform="translate(405,682)"/>
<path d="M0 0 C157.41 0 314.82 0 477 0 C477 2.31 477 4.62 477 7 C319.59 7 162.18 7 0 7 C0 4.69 0 2.38 0 0 Z M1 1 C1.33 2.65 1.66 4.3 2 6 C46.65655426 6.01711323 91.31310888 6.03301795 135.96966553 6.04234314 C136.96058755 6.04255023 136.96058755 6.04255023 137.97152819 6.04276149 C152.32742657 6.04575419 166.68332498 6.0485244 181.03922345 6.05106533 C188.07904611 6.0523127 195.11886876 6.05360925 202.15869141 6.05493164 C203.20952869 6.05512778 203.20952869 6.05512778 204.281595 6.05532788 C227.00098584 6.05959151 249.72037419 6.06710452 272.43976352 6.07629722 C296.44223894 6.08599147 320.44471273 6.0919946 344.44719005 6.09408849 C358.8314951 6.09546314 373.21579303 6.0998106 387.6000959 6.10791647 C397.45327359 6.11318735 407.30644757 6.11480351 417.15962657 6.11350138 C422.8511259 6.11285854 428.54261275 6.11386947 434.23410988 6.11920547 C439.43894866 6.12404979 444.64376648 6.12433178 449.8486062 6.12089889 C451.73695601 6.12047423 453.6253071 6.12176126 455.51365438 6.12488318 C458.07021623 6.12886591 460.62670133 6.12675155 463.18326187 6.12304783 C464.29615681 6.12698835 464.29615681 6.12698835 465.43153447 6.13100848 C468.76380992 6.12001623 471.81416069 6.03768896 475 5 C475 3.68 475 2.36 475 1 C318.58 1 162.16 1 1 1 Z " fill="#831DB3" transform="translate(277,768)"/>
<path d="M0 0 C49.5 0 99 0 150 0 C150 7.26 150 14.52 150 22 C148.02 22 146.04 22 144 22 C144 16.39 144 10.78 144 5 C98.46 5 52.92 5 6 5 C6 10.61 6 16.22 6 22 C4.02 22 2.04 22 0 22 C0 14.74 0 7.48 0 0 Z " fill="#0FFDF9" transform="translate(448,331)"/>
<path d="M0 0 C23.39582699 -0.03101163 46.79165538 -0.05110645 70.1875 -0.0625 C71.0537618 -0.0629343 71.9200236 -0.06336861 72.81253576 -0.06381607 C119.56515516 -0.08662264 166.31226422 -0.0196031 213.0625 0.5 C214.13926876 0.51195782 215.21603752 0.52391563 216.32543564 0.53623581 C228.88380739 0.67690393 241.44199086 0.83002298 254 1 C252.40437169 2.91295528 251.5072226 3.90464811 249.01798517 4.37259549 C247.87597627 4.37088675 247.87597627 4.37088675 246.71089649 4.36914349 C245.83059106 4.37511663 244.95028562 4.38108978 244.04330426 4.38724393 C243.07541477 4.3785054 242.10752527 4.36976688 241.11030579 4.36076355 C239.56900341 4.36460846 239.56900341 4.36460846 237.99656361 4.36853105 C234.53702124 4.37349124 231.07791069 4.35693891 227.6184082 4.34057617 C225.14509084 4.33973038 222.67177273 4.34020409 220.19845581 4.34190369 C214.86512462 4.3425879 209.53192906 4.33405259 204.19863319 4.31719017 C196.48757332 4.29282576 188.7765667 4.28499753 181.06547251 4.2812262 C168.55525555 4.27465768 156.04509722 4.2546857 143.53491211 4.22631836 C131.38126926 4.19878812 119.22764233 4.17754948 107.07397461 4.16479492 C106.32502689 4.16400675 105.57607917 4.16321858 104.80443607 4.16240653 C101.04724618 4.15849146 97.29005619 4.15470033 93.53286612 4.15097082 C62.35520144 4.11986246 31.17760962 4.06679305 0 4 C0 2.68 0 1.36 0 0 Z " fill="#AD11F0" transform="translate(278,769)"/>
<path d="M0 0 C7.26 0 14.52 0 22 0 C22 16.17 22 32.34 22 49 C0.22 49 -21.56 49 -44 49 C-44 40.42 -44 31.84 -44 23 C-29.48 23 -14.96 23 0 23 C0 15.41 0 7.82 0 0 Z M3 3 C1.8517315 5.296537 1.88438825 6.58313167 1.90234375 9.1328125 C1.90717773 10.34130859 1.90717773 10.34130859 1.91210938 11.57421875 C1.92048828 12.41597656 1.92886719 13.25773438 1.9375 14.125 C1.94201172 14.97449219 1.94652344 15.82398438 1.95117188 16.69921875 C1.96297126 18.79950909 1.98090694 20.8997633 2 23 C1.34 23 0.68 23 0 23 C0 23.66 0 24.32 0 25 C-6.27 25 -12.54 25 -19 25 C-19 32.59 -19 40.18 -19 48 C-5.8 48 7.4 48 21 48 C21.2003021 25.47155531 21.2003021 25.47155531 20 3 C14.39 3 8.78 3 3 3 Z " fill="#7019C1" transform="translate(366,711)"/>
<path d="M0 0 C50.82 0 101.64 0 154 0 C154.33 8.91 154.66 17.82 155 27 C103.85 27 52.7 27 0 27 C0 18.09 0 9.18 0 0 Z M2 2 C2 9.26 2 16.52 2 24 C51.5 24 101 24 152 24 C152 16.74 152 9.48 152 2 C102.5 2 53 2 2 2 Z " fill="#3DD4E8" transform="translate(446,329)"/>
<path d="M0 0 C79.2 0 158.4 0 240 0 C240 7.59 240 15.18 240 23 C248.25 23 256.5 23 265 23 C265.66 24.65 266.32 26.3 267 28 C266.67 28.33 266.34 28.66 266 29 C265.91368126 30.34267413 265.89293527 31.68974322 265.90234375 33.03515625 C265.90609009 34.12775757 265.90609009 34.12775757 265.90991211 35.24243164 C265.91901611 36.1730542 265.92812012 37.10367676 265.9375 38.0625 C265.9684375 42.4865625 265.9684375 42.4865625 266 47 C273.59 47 281.18 47 289 47 C290.27861615 49.55723229 290.11336609 51.36737102 290.09765625 54.2265625 C290.09443359 55.2578125 290.09121094 56.2890625 290.08789062 57.3515625 C290.07951172 58.43179688 290.07113281 59.51203125 290.0625 60.625 C290.05798828 61.71296875 290.05347656 62.8009375 290.04882812 63.921875 C290.03701776 66.61463789 290.02054778 69.30729188 290 72 C291.485 71.505 291.485 71.505 293 71 C294.54214234 70.90764571 296.0879087 70.86932345 297.6328125 70.8671875 C298.52097656 70.86589844 299.40914062 70.86460937 300.32421875 70.86328125 C301.71060547 70.86908203 301.71060547 70.86908203 303.125 70.875 C304.05699219 70.87113281 304.98898437 70.86726562 305.94921875 70.86328125 C306.83480469 70.86457031 307.72039062 70.86585938 308.6328125 70.8671875 C309.85315186 70.86887939 309.85315186 70.86887939 311.09814453 70.87060547 C313 71 313 71 314 72 C314.09945305 73.97901051 314.12799617 75.96160784 314.12939453 77.94311523 C314.13254669 79.22053085 314.13569885 80.49794647 314.13894653 81.81407166 C314.13715202 83.22891269 314.13509991 84.64375342 314.1328125 86.05859375 C314.1334872 87.51945512 314.13445862 88.98031638 314.13571167 90.44117737 C314.1371924 93.52744601 314.13502984 96.61368587 314.13037109 99.69995117 C314.12479866 103.57269182 314.12786836 107.44536125 314.13394356 111.31809902 C314.13764824 114.35332219 314.13636457 117.38852997 314.13381577 120.42375374 C314.13316673 121.84525626 314.13390034 123.26676038 314.13629532 124.68826103 C314.15437266 138.48895726 313.53122216 152.18822389 313 166 C290.56 166 268.12 166 245 166 C245 144.88 245 123.76 245 102 C245.33 102 245.66 102 246 102 C246 122.79 246 143.58 246 165 C267.78 165 289.56 165 312 165 C312 134.64 312 104.28 312 73 C304.08 73 296.16 73 288 73 C288 65.08 288 57.16 288 49 C280.08 49 272.16 49 264 49 C264 41.08 264 33.16 264 25 C255.75 25 247.5 25 239 25 C239 17.08 239 9.16 239 1 C160.13 1 81.26 1 0 1 C0 0.67 0 0.34 0 0 Z " fill="#1B4D67" transform="translate(399,594)"/>
<path d="M0 0 C1.92875977 0.00483398 1.92875977 0.00483398 3.89648438 0.00976562 C5.2343757 0.01811823 6.57226632 0.02658314 7.91015625 0.03515625 C9.27538899 0.04017966 10.64062351 0.04474108 12.00585938 0.04882812 C15.32817082 0.06056774 18.65039033 0.07698946 21.97265625 0.09765625 C21.97265625 0.75765625 21.97265625 1.41765625 21.97265625 2.09765625 C167.83265625 2.09765625 313.69265625 2.09765625 463.97265625 2.09765625 C463.97265625 8.22087539 463.82883614 13.21141951 462.97265625 19.09765625 C462.64265625 19.09765625 462.31265625 19.09765625 461.97265625 19.09765625 C461.97265625 16.78765625 461.97265625 14.47765625 461.97265625 12.09765625 C461.10991089 12.1430957 461.10991089 12.1430957 460.22973633 12.18945312 C447.54198091 12.83697818 434.86412741 13.22152106 422.16015625 13.28515625 C420.89727783 13.29804687 419.63439941 13.3109375 418.33325195 13.32421875 C416.56727661 13.32615234 416.56727661 13.32615234 414.765625 13.328125 C413.19590942 13.33428833 413.19590942 13.33428833 411.59448242 13.34057617 C408.97265625 13.09765625 408.97265625 13.09765625 405.97265625 11.09765625 C424.45265625 10.76765625 442.93265625 10.43765625 461.97265625 10.09765625 C462.30265625 7.78765625 462.63265625 5.47765625 462.97265625 3.09765625 C305.56265625 3.09765625 148.15265625 3.09765625 -14.02734375 3.09765625 C-14.02734375 2.43765625 -14.02734375 1.77765625 -14.02734375 1.09765625 C-9.30116963 0.33502961 -4.78529662 -0.02126798 0 0 Z " fill="#290247" transform="translate(291.02734375,764.90234375)"/>
<path d="M0 0 C66.33 0 132.66 0 201 0 C201 0.33 201 0.66 201 1 C198.36 1 195.72 1 193 1 C193 1.66 193 2.32 193 3 C129.31 3 65.62 3 0 3 C0 2.01 0 1.02 0 0 Z " fill="#8556E4" transform="translate(427,734)"/>
<path d="M0 0 C78.87 0 157.74 0 239 0 C239 7.92 239 15.84 239 24 C236.36 24 233.72 24 231 24 C231 23.67 231 23.34 231 23 C232.98 23 234.96 23 237 23 C237 16.07 237 9.14 237 2 C159.45 2 81.9 2 2 2 C2 9.26 2 16.52 2 24 C1.34 23.67 0.68 23.34 0 23 C0 15.41 0 7.82 0 0 Z " fill="#2EF1F1" transform="translate(399,595)"/>
<path d="M0 0 C0.33 0 0.66 0 1 0 C1 19.14 1 38.28 1 58 C-1.64 58 -4.28 58 -7 58 C-7 41.17 -7 24.34 -7 7 C-13.6 7 -20.2 7 -27 7 C-26 2 -26 2 -25 1 C-23.23063721 0.92489971 -21.45833523 0.91682877 -19.6875 0.9375 C-18.61242187 0.94523437 -17.53734375 0.95296875 -16.4296875 0.9609375 C-14.14322917 0.98697917 -11.85677083 1.01302083 -9.5703125 1.0390625 C-7.95769531 1.05066406 -7.95769531 1.05066406 -6.3125 1.0625 C-4.82169922 1.07990234 -4.82169922 1.07990234 -3.30078125 1.09765625 C-1.03590358 1.26139847 -1.03590358 1.26139847 0 0 Z " fill="#FA71FC" transform="translate(668,431)"/>
<path d="M0 0 C6.6 0 13.2 0 20 0 C20 4.29 20 8.58 20 13 C23.3 13 26.6 13 30 13 C30 17.62 30 22.24 30 27 C23.07 27 16.14 27 9 27 C9 22.38 9 17.76 9 13 C6.03 13 3.06 13 0 13 C0 8.71 0 4.42 0 0 Z " fill="#1480CA" transform="translate(636,683)"/>
<path d="M0 0 C2.64 0 5.28 0 8 0 C8 22.11 8 44.22 8 67 C5.36 67 2.72 67 0 67 C0 44.89 0 22.78 0 0 Z " fill="#0BDADE" transform="translate(323,667)"/>
<path d="M0 0 C6.6 0 13.2 0 20 0 C20 1.98 20 3.96 20 6 C15.71 6 11.42 6 7 6 C7 23.16 7 40.32 7 58 C4.69 58 2.38 58 0 58 C0 38.86 0 19.72 0 0 Z " fill="#E353F6" transform="translate(377,431)"/>
<path d="M0 0 C7.26 0 14.52 0 22 0 C22 20.79 22 41.58 22 63 C20.02 63 18.04 63 16 63 C16 44.19 16 25.38 16 6 C10.72 6 5.44 6 0 6 C0 4.02 0 2.04 0 0 Z " fill="#0DFCF7" transform="translate(687,669)"/>
<path d="M0 0 C79.86 0 159.72 0 242 0 C242 0.33 242 0.66 242 1 C162.8 1 83.6 1 2 1 C2 9.25 2 17.5 2 26 C-6.58 26 -15.16 26 -24 26 C-24 33.92 -24 41.84 -24 50 C-32.25 50 -40.5 50 -49 50 C-49 49.67 -49 49.34 -49 49 C-43.79826905 48.13190561 -38.83021184 47.87484652 -33.5625 47.9375 C-32.46518555 47.94426758 -32.46518555 47.94426758 -31.34570312 47.95117188 C-29.56376581 47.96281852 -27.78187137 47.98074809 -26 48 C-26.00785522 46.9627478 -26.00785522 46.9627478 -26.01586914 45.90454102 C-26.036575 42.79053648 -26.04963963 39.67654639 -26.0625 36.5625 C-26.07087891 35.47388672 -26.07925781 34.38527344 -26.08789062 33.26367188 C-26.09272461 31.71196289 -26.09272461 31.71196289 -26.09765625 30.12890625 C-26.10551147 28.69140015 -26.10551147 28.69140015 -26.11352539 27.22485352 C-26 25 -26 25 -25 24 C-23.22130274 23.84235595 -21.43681524 23.74899323 -19.65234375 23.68359375 C-18.57275391 23.64169922 -17.49316406 23.59980469 -16.38085938 23.55664062 C-15.24455078 23.51732422 -14.10824219 23.47800781 -12.9375 23.4375 C-11.22723633 23.37272461 -11.22723633 23.37272461 -9.48242188 23.30664062 C-6.65507805 23.20017161 -3.82764262 23.09815793 -1 23 C2.43187671 16.13624657 0 7.67390962 0 0 Z " fill="#001A20" transform="translate(397,593)"/>
<path d="M0 0 C7.92 0 15.84 0 24 0 C24 22.11 24 44.22 24 67 C9.15 67 -5.7 67 -21 67 C-21 54.46 -21 41.92 -21 29 C-24.3 29 -27.6 29 -31 29 C-31 24.71 -31 20.42 -31 16 C-33.02640625 16.01740234 -33.02640625 16.01740234 -35.09375 16.03515625 C-36.89583194 16.04454209 -38.69791539 16.05364144 -40.5 16.0625 C-41.386875 16.07087891 -42.27375 16.07925781 -43.1875 16.08789062 C-48.55823086 16.10763596 -53.68633663 15.78835893 -59 15 C-59 14.67 -59 14.34 -59 14 C-55.03069011 13.97534119 -51.06140966 13.95715977 -47.09204102 13.94506836 C-45.74079614 13.94002943 -44.38955674 13.93319823 -43.03833008 13.92456055 C-41.09979566 13.91247581 -39.161222 13.90730172 -37.22265625 13.90234375 C-35.47094116 13.89448853 -35.47094116 13.89448853 -33.68383789 13.88647461 C-31 14 -31 14 -30 15 C-29.92741054 17.18639453 -29.91626217 19.37500389 -29.9375 21.5625 C-29.94652344 22.76003906 -29.95554687 23.95757813 -29.96484375 25.19140625 C-29.97644531 26.11824219 -29.98804688 27.04507813 -30 28 C-29.28972656 27.98839844 -28.57945312 27.97679687 -27.84765625 27.96484375 C-26.92855469 27.95582031 -26.00945313 27.94679688 -25.0625 27.9375 C-23.68771484 27.92009766 -23.68771484 27.92009766 -22.28515625 27.90234375 C-20 28 -20 28 -19 29 C-18.9114933 31.59334148 -18.8846683 34.16062579 -18.90234375 36.75390625 C-18.90335083 37.44093628 -18.90435791 38.12796631 -18.90539551 38.83581543 C-18.91064224 41.41139384 -18.92460341 43.98694853 -18.9375 46.5625 C-18.958125 52.316875 -18.97875 58.07125 -19 64 C1.295 64.495 1.295 64.495 22 65 C22 44.21 22 23.42 22 2 C14.74 2 7.48 2 0 2 C0 1.34 0 0.68 0 0 Z " fill="#31DBE9" transform="translate(687,667)"/>
<path d="M0 0 C0.33 0 0.66 0 1 0 C1.1953125 2.05078125 1.390625 4.1015625 1.5859375 6.15234375 C1.72257813 6.76207031 1.85921875 7.37179687 2 8 C2.99 8.495 2.99 8.495 4 9 C4 9.66 4 10.32 4 11 C3.34 11 2.68 11 2 11 C2.0721875 11.71542969 2.144375 12.43085938 2.21875 13.16796875 C2.92965607 20.80033532 3.11123156 28.3373816 3 36 C2.01 36.33 1.02 36.66 0 37 C0 28.42 0 19.84 0 11 C-50.82 11 -101.64 11 -154 11 C-154 10.34 -154 9.68 -154 9 C-103.18 9 -52.36 9 0 9 C0 6.03 0 3.06 0 0 Z " fill="#033D46" transform="translate(600,318)"/>
<path d="M0 0 C59.4 0 118.8 0 180 0 C180 61.71 180 123.42 180 187 C178.68 186.67 177.36 186.34 176 186 C176.66 185.01 177.32 184.02 178 183 C178.20051244 180.53949319 178.28528109 178.19099782 178.2784729 175.72981262 C178.2871615 174.61115792 178.2871615 174.61115792 178.29602563 173.46990412 C178.31306853 170.96402349 178.31590579 168.45832655 178.31884766 165.95239258 C178.32814288 164.15886481 178.33831094 162.36534138 178.34928894 160.57182312 C178.37664877 155.69613244 178.39175605 150.82047074 178.40471697 145.94472337 C178.42032137 140.85176143 178.44712013 135.75885892 178.4727478 130.66593933 C178.51958332 121.01875205 178.55630431 111.37155364 178.58942068 101.72431058 C178.62760838 90.74255112 178.67702729 79.76085127 178.72740483 68.77914202 C178.83079567 46.18613884 178.92003278 23.59309737 179 1 C177.88320846 1.10630564 177.88320846 1.10630564 176.74385548 1.21475887 C167.57686995 2.01175177 158.47659143 2.13602592 149.28588867 2.11352539 C147.64852398 2.11324264 146.01115917 2.11340296 144.37379456 2.1139679 C139.96973481 2.11425246 135.56570282 2.10841126 131.16164947 2.10139394 C126.54390974 2.09510324 121.92616925 2.09455211 117.3084259 2.09336853 C108.58235843 2.09027197 99.85630362 2.08208134 91.13024169 2.07201904 C81.18817223 2.06080565 71.24610214 2.05533433 61.30402792 2.05032361 C40.8693449 2.03989717 20.43467325 2.02233044 0 2 C0 1.34 0 0.68 0 0 Z " fill="#D078EE" transform="translate(445,356)"/>
<path d="M0 0 C2.31 0 4.62 0 7 0 C7 16.83 7 33.66 7 51 C4.69 51 2.38 51 0 51 C0 34.17 0 17.34 0 0 Z " fill="#E458F7" transform="translate(405,683)"/>
<path d="M0 0 C7.92 0 15.84 0 24 0 C24 0.33 24 0.66 24 1 C17 2 17 2 1 2 C1 30.71 1 59.42 1 89 C5.62 88.67 10.24 88.34 15 88 C14.94779297 85.99486328 14.94779297 85.99486328 14.89453125 83.94921875 C14.86639392 82.19532505 14.8390937 80.44141778 14.8125 78.6875 C14.78736328 77.80642578 14.76222656 76.92535156 14.73632812 76.01757812 C14.72666016 75.17001953 14.71699219 74.32246094 14.70703125 73.44921875 C14.68346558 72.27879028 14.68346558 72.27879028 14.65942383 71.0847168 C15 69 15 69 16.21289062 67.24023438 C18.56790783 65.60587817 20.03561239 65.65519295 22.88671875 65.70703125 C24.2934082 65.7215332 24.2934082 65.7215332 25.72851562 65.73632812 C26.70498047 65.76146484 27.68144531 65.78660156 28.6875 65.8125 C29.67556641 65.82603516 30.66363281 65.83957031 31.68164062 65.85351562 C34.12132617 65.88887339 36.56073163 65.94268038 39 66 C39 61.71 39 57.42 39 53 C39.33 53 39.66 53 40 53 C40 57.95 40 62.9 40 68 C32.74 68 25.48 68 18 68 C18 75.59 18 83.18 18 91 C11.73 91 5.46 91 -1 91 C-1.02288758 82.67878134 -1.04110511 74.35758847 -1.05181217 66.03634644 C-1.05695936 62.16956381 -1.06390182 58.30280441 -1.07543945 54.43603516 C-1.12829687 36.25492434 -0.91838813 18.16528326 0 0 Z " fill="#29D0E5" transform="translate(348,643)"/>
<path d="M0 0 C2.31 0 4.62 0 7 0 C7 16.5 7 33 7 50 C4.69 50 2.38 50 0 50 C0 33.5 0 17 0 0 Z " fill="#14FBF8" transform="translate(620,683)"/>
<path d="M0 0 C3.64581687 -0.02887512 7.29160463 -0.04675585 10.9375 -0.0625 C12.49887695 -0.07506836 12.49887695 -0.07506836 14.09179688 -0.08789062 C15.57583008 -0.09272461 15.57583008 -0.09272461 17.08984375 -0.09765625 C18.46450806 -0.10551147 18.46450806 -0.10551147 19.86694336 -0.11352539 C22 0 22 0 23 1 C23.08700342 2.63472882 23.10701063 4.27314055 23.09765625 5.91015625 C23.09443359 6.89951172 23.09121094 7.88886719 23.08789062 8.90820312 C23.07951172 9.94912109 23.07113281 10.99003906 23.0625 12.0625 C23.05798828 13.10728516 23.05347656 14.15207031 23.04882812 15.22851562 C23.03699913 17.8190666 23.02051689 20.40950559 23 23 C20.36 23 17.72 23 15 23 C15 17.72 15 12.44 15 7 C10.05 7 5.1 7 0 7 C0 4.69 0 2.38 0 0 Z " fill="#15FDF7" transform="translate(663,644)"/>
<path d="M0 0 C11.55 0 23.1 0 35 0 C35 11.22 35 22.44 35 34 C23.45 34 11.9 34 0 34 C0 22.78 0 11.56 0 0 Z M2 2 C2 11.9 2 21.8 2 32 C11.9 32 21.8 32 32 32 C32.8554927 25.29273503 32.8554927 25.29273503 33.1328125 18.66015625 C33.13410156 17.74298828 33.13539063 16.82582031 33.13671875 15.88085938 C33.13091797 14.48577148 33.13091797 14.48577148 33.125 13.0625 C33.12886719 12.10537109 33.13273438 11.14824219 33.13671875 10.16210938 C33.13542969 9.25396484 33.13414062 8.34582031 33.1328125 7.41015625 C33.13168457 6.58652588 33.13055664 5.76289551 33.12939453 4.91430664 C33.21022234 2.99095234 33.21022234 2.99095234 32 2 C29.78144736 1.91216458 27.56011504 1.89305391 25.33984375 1.90234375 C23.51634399 1.90609009 23.51634399 1.90609009 21.65600586 1.90991211 C19.32034546 1.92356812 19.32034546 1.92356812 16.9375 1.9375 C12.008125 1.958125 7.07875 1.97875 2 2 Z " fill="#461859" transform="translate(553,423)"/>
<path d="M0 0 C7.26 0 14.52 0 22 0 C22 7.59 22 15.18 22 23 C20.02 23 18.04 23 16 23 C16 17.72 16 12.44 16 7 C10.72 7 5.44 7 0 7 C0 4.69 0 2.38 0 0 Z " fill="#17FCF6" transform="translate(639,620)"/>
<path d="M0 0 C5.28 0 10.56 0 16 0 C16 2.31 16 4.62 16 7 C13.03 7 10.06 7 7 7 C7 12.28 7 17.56 7 23 C4.69 23 2.38 23 0 23 C0 15.41 0 7.82 0 0 Z " fill="#18FAF6" transform="translate(374,620)"/>
<path d="M0 0 C6.93 0 13.86 0 21 0 C21 7.92 21 15.84 21 24 C33.21 24 45.42 24 58 24 C57.505 25.485 57.505 25.485 57 27 C51.90968245 27.04936158 46.81950357 27.08570105 41.72900391 27.10986328 C39.99655735 27.11993376 38.26412784 27.13359089 36.53173828 27.15087891 C34.04455361 27.17508162 31.55759325 27.18647239 29.0703125 27.1953125 C28.29317902 27.20563507 27.51604553 27.21595764 26.71536255 27.22659302 C24.80874507 27.22699271 22.90268964 27.1223214 21 27 C19 25 19 25 18.77294922 22.75341797 C18.78342285 21.84221191 18.79389648 20.93100586 18.8046875 19.9921875 C18.81113281 19.00605469 18.81757812 18.01992188 18.82421875 17.00390625 C18.84097656 15.97136719 18.85773437 14.93882812 18.875 13.875 C18.88402344 12.83472656 18.89304687 11.79445313 18.90234375 10.72265625 C18.92596133 8.14834003 18.96183316 5.57414162 19 3 C12.73 3 6.46 3 0 3 C0 2.01 0 1.02 0 0 Z " fill="#7757E1" transform="translate(645,710)"/>
<path d="M0 0 C2.64 0 5.28 0 8 0 C8 22.11 8 44.22 8 67 C5.36 67 2.72 67 0 67 C0 44.89 0 22.78 0 0 Z M3 2 C1.71489224 3.06094586 1.71489224 3.06094586 1.87974548 5.51197815 C1.88196609 6.62894577 1.88418671 7.74591339 1.88647461 8.89672852 C1.88655014 10.15796036 1.88662567 11.4191922 1.88670349 12.71864319 C1.8918109 14.10539794 1.89702691 15.49215229 1.90234375 16.87890625 C1.90420799 18.28995209 1.90563186 19.70099857 1.90663147 21.11204529 C1.91045621 24.83240535 1.9202861 28.5527266 1.93133545 32.27307129 C1.94155052 36.06680781 1.94612929 39.86055058 1.95117188 43.65429688 C1.96190842 51.10288231 1.9789843 58.55143572 2 66 C3.65 66 5.3 66 7 66 C7 44.88 7 23.76 7 2 C5.68 2 4.36 2 3 2 Z " fill="#28BECF" transform="translate(323,667)"/>
<path d="M0 0 C5.28 0 10.56 0 16 0 C16 1.98 16 3.96 16 6 C13.03 6 10.06 6 7 6 C7 11.28 7 16.56 7 22 C4.69 22 2.38 22 0 22 C0 14.74 0 7.48 0 0 Z " fill="#15FDF7" transform="translate(349,645)"/>
<path d="M0 0 C2.64 0 5.28 0 8 0 C8 8.25 8 16.5 8 25 C5.36 25 2.72 25 0 25 C0 16.75 0 8.5 0 0 Z " fill="#EB6BF6" transform="translate(703,734)"/>
<path d="M0 0 C2.64 0 5.28 0 8 0 C8 7.92 8 15.84 8 24 C5.36 24 2.72 24 0 24 C0 16.08 0 8.16 0 0 Z " fill="#E75BF2" transform="translate(620,735)"/>
<path d="M0 0 C3.79164991 -0.02943124 7.58326979 -0.0469419 11.375 -0.0625 C12.43589844 -0.07087891 13.49679687 -0.07925781 14.58984375 -0.08789062 C16.16572266 -0.09272461 16.16572266 -0.09272461 17.7734375 -0.09765625 C18.72653809 -0.10289307 19.67963867 -0.10812988 20.66162109 -0.11352539 C25.12063637 0.03810852 29.56054926 0.55605493 34 1 C34 12.55 34 24.1 34 36 C22.45 36 10.9 36 -1 36 C-1.020625 30.616875 -1.04125 25.23375 -1.0625 19.6875 C-1.071604 17.99197998 -1.08070801 16.29645996 -1.09008789 14.54956055 C-1.09300888 13.20361409 -1.09555701 11.85766674 -1.09765625 10.51171875 C-1.10277222 9.81453735 -1.10788818 9.11735596 -1.11315918 8.39904785 C-1.11371559 5.3159858 -0.98329171 2.94987514 0 0 Z M0 3 C0 13.56 0 24.12 0 35 C10.89 35 21.78 35 33 35 C33 24.44 33 13.88 33 3 C22.11 3 11.22 3 0 3 Z " fill="#9345A9" transform="translate(462,421)"/>
<path d="M0 0 C7.26 0 14.52 0 22 0 C22 15.84 22 31.68 22 48 C21.67 48 21.34 48 21 48 C20.85413589 44.00231472 20.71193562 40.00451542 20.57275391 36.0065918 C20.50214386 33.9984704 20.42884832 31.99044398 20.35546875 29.98242188 C20.04422895 20.97869906 19.95671541 12.00860563 20 3 C14.39 3 8.78 3 3 3 C2.67 9.6 2.34 16.2 2 23 C1.34 23 0.68 23 0 23 C0 15.41 0 7.82 0 0 Z " fill="#884DD9" transform="translate(366,711)"/>
<path d="M0 0 C0.33 0 0.66 0 1 0 C1 7.92 1 15.84 1 24 C-7.58 24 -16.16 24 -25 24 C-25 31.92 -25 39.84 -25 48 C-33.25 48 -41.5 48 -50 48 C-50 47.67 -50 47.34 -50 47 C-44.79826905 46.13190561 -39.83021184 45.87484652 -34.5625 45.9375 C-33.46518555 45.94426758 -33.46518555 45.94426758 -32.34570312 45.95117188 C-30.56376581 45.96281852 -28.78187137 45.98074809 -27 46 C-27.00785522 44.9627478 -27.00785522 44.9627478 -27.01586914 43.90454102 C-27.036575 40.79053648 -27.04963963 37.67654639 -27.0625 34.5625 C-27.07087891 33.47388672 -27.07925781 32.38527344 -27.08789062 31.26367188 C-27.09272461 29.71196289 -27.09272461 29.71196289 -27.09765625 28.12890625 C-27.10551147 26.69140015 -27.10551147 26.69140015 -27.11352539 25.22485352 C-27 23 -27 23 -26 22 C-24.23266824 21.85447268 -22.45999006 21.77277531 -20.6875 21.71875 C-19.61242187 21.68136719 -18.53734375 21.64398437 -17.4296875 21.60546875 C-15.14322917 21.53515625 -12.85677083 21.46484375 -10.5703125 21.39453125 C-9.49523437 21.35714844 -8.42015625 21.31976562 -7.3125 21.28125 C-6.31863281 21.25095703 -5.32476562 21.22066406 -4.30078125 21.18945312 C-2.03716014 21.25272441 -2.03716014 21.25272441 -1 20 C-0.84344973 18.51361008 -0.74933057 17.02050873 -0.68359375 15.52734375 C-0.62075195 14.17866211 -0.62075195 14.17866211 -0.55664062 12.80273438 C-0.51732422 11.85720703 -0.47800781 10.91167969 -0.4375 9.9375 C-0.37272461 8.5134082 -0.37272461 8.5134082 -0.30664062 7.06054688 C-0.20020724 4.70718647 -0.09818992 2.35371646 0 0 Z " fill="#003A41" transform="translate(398,595)"/>
<path d="M0 0 C2.31 0 4.62 0 7 0 C7 7.59 7 15.18 7 23 C4.69 23 2.38 23 0 23 C0 15.41 0 7.82 0 0 Z " fill="#9D29E6" transform="translate(324,736)"/>
<path d="M0 0 C2.64 0 5.28 0 8 0 C8 6.6 8 13.2 8 20 C5.36 20 2.72 20 0 20 C0 13.4 0 6.8 0 0 Z " fill="#B52BF7" transform="translate(574,554)"/>
<path d="M0 0 C9.9 0 19.8 0 30 0 C29.67 2.97 29.34 5.94 29 9 C28.67 9 28.34 9 28 9 C28 6.69 28 4.38 28 2 C27.43829102 2.16298584 26.87658203 2.32597168 26.29785156 2.49389648 C23.86446819 3.02985098 21.72377772 3.11361396 19.234375 3.09765625 C18.34492187 3.09443359 17.45546875 3.09121094 16.5390625 3.08789062 C15.61867188 3.07951172 14.69828125 3.07113281 13.75 3.0625 C12.81414063 3.05798828 11.87828125 3.05347656 10.9140625 3.04882812 C8.60930959 3.03706918 6.30468773 3.02063426 4 3 C2.41645163 6.50728291 1.75309762 9.22438964 1.77294922 13.06567383 C1.77310028 14.04631302 1.77325134 15.02695221 1.77340698 16.03730774 C1.78372955 17.0833165 1.79405212 18.12932526 1.8046875 19.20703125 C1.8075174 20.28756271 1.81034729 21.36809418 1.81326294 22.48136902 C1.82443868 25.92519301 1.84953882 29.36875489 1.875 32.8125 C1.88503315 35.15038686 1.89415842 37.48827781 1.90234375 39.82617188 C1.92436954 45.55088191 1.95888179 51.27539655 2 57 C8.6 57.33 15.2 57.66 22 58 C22 58.33 22 58.66 22 59 C14.74 59 7.48 59 0 59 C0 39.53 0 20.06 0 0 Z " fill="#D370E0" transform="translate(639,430)"/>
<path d="M0 0 C3.47914941 -0.02887814 6.95826831 -0.04675687 10.4375 -0.0625 C11.92733398 -0.07506836 11.92733398 -0.07506836 13.44726562 -0.08789062 C14.39150391 -0.09111328 15.33574219 -0.09433594 16.30859375 -0.09765625 C17.62041626 -0.10551147 17.62041626 -0.10551147 18.95874023 -0.11352539 C21 0 21 0 22 1 C22.09333705 2.59610982 22.11745372 4.19633428 22.11352539 5.79516602 C22.11344986 6.81614883 22.11337433 7.83713165 22.11329651 8.88905334 C22.10813522 9.9994548 22.10297394 11.10985626 22.09765625 12.25390625 C22.0962413 13.38448959 22.09482635 14.51507294 22.09336853 15.67991638 C22.08775019 19.30747065 22.07519458 22.93496424 22.0625 26.5625 C22.05748736 29.01497307 22.05292405 31.4674471 22.04882812 33.91992188 C22.0377748 39.94663545 22.02101884 45.97331339 22 52 C21.34 52 20.68 52 20 52 C20 35.5 20 19 20 2 C15.71 2 11.42 2 7 2 C4.65866165 1.72854048 2.31725975 1.43111809 0 1 C0 0.67 0 0.34 0 0 Z " fill="#6964DC" transform="translate(405,682)"/>
<path d="M0 0 C0.33 0 0.66 0 1 0 C1 7.59 1 15.18 1 23 C9.25 23 17.5 23 26 23 C26.66 24.65 27.32 26.3 28 28 C27.67 28.33 27.34 28.66 27 29 C26.84379445 30.41327947 26.74943827 31.8335459 26.68359375 33.25390625 C26.64548584 34.0229126 26.60737793 34.79191895 26.56811523 35.58422852 C26.50346069 37.0584729 26.50346069 37.0584729 26.4375 38.5625 C26.293125 41.676875 26.14875 44.79125 26 48 C33.26 48 40.52 48 48 48 C48 48.33 48 48.66 48 49 C40.41 49 32.82 49 25 49 C25 41.08 25 33.16 25 25 C16.75 25 8.5 25 0 25 C0 16.75 0 8.5 0 0 Z " fill="#003E45" transform="translate(638,594)"/>
<path d="M0 0 C6.6 0 13.2 0 20 0 C20 1.98 20 3.96 20 6 C19.67 6 19.34 6 19 6 C19 4.35 19 2.7 19 1 C18.00419922 1.10828125 18.00419922 1.10828125 16.98828125 1.21875 C16.10527344 1.3115625 15.22226562 1.404375 14.3125 1.5 C13.00732422 1.63921875 13.00732422 1.63921875 11.67578125 1.78125 C9 2 9 2 6.23046875 1.96875 C4.02720993 1.74041292 4.02720993 1.74041292 3 3 C2.84757687 4.68620973 2.76176927 6.3784963 2.70288086 8.07055664 C2.66291489 9.15160172 2.62294891 10.23264679 2.58177185 11.34645081 C2.54318558 12.5224736 2.5045993 13.6984964 2.46484375 14.91015625 C2.42186661 16.10732773 2.37888947 17.30449921 2.33460999 18.53794861 C2.19774728 22.37932243 2.06755761 26.22089033 1.9375 30.0625 C1.84614101 32.65952065 1.75434993 35.25652614 1.66210938 37.85351562 C1.43638337 44.2355093 1.21614239 50.61767496 1 57 C2.98 57 4.96 57 7 57 C7 57.33 7 57.66 7 58 C4.69 58 2.38 58 0 58 C0 38.86 0 19.72 0 0 Z " fill="#D76AE5" transform="translate(377,431)"/>
<path d="M0 0 C1.32 0 2.64 0 4 0 C4.67453101 7.68483539 5.1567564 15.28410183 5 23 C3.33388095 23.042721 1.66617115 23.04063832 0 23 C-1.62200515 21.37799485 -1.1299075 19.57976969 -1.1328125 17.34375 C-1.13410156 16.40402344 -1.13539063 15.46429687 -1.13671875 14.49609375 C-1.13285156 13.50738281 -1.12898438 12.51867187 -1.125 11.5 C-1.12886719 10.51128906 -1.13273437 9.52257812 -1.13671875 8.50390625 C-1.13542969 7.56417969 -1.13414062 6.62445312 -1.1328125 5.65625 C-1.13168457 4.78806641 -1.13055664 3.91988281 -1.12939453 3.02539062 C-1 1 -1 1 0 0 Z " fill="#A608F5" transform="translate(407,735)"/>
<path d="M0 0 C0.33 0 0.66 0 1 0 C1 19.14 1 38.28 1 58 C-1.64 58 -4.28 58 -7 58 C-7 57.34 -7 56.68 -7 56 C-5.02 56 -3.04 56 -1 56 C-1.00222061 55.41641724 -1.00444122 54.83283447 -1.00672913 54.23156738 C-1.02893415 48.13159805 -1.04396988 42.0316403 -1.05493164 35.93164062 C-1.05994564 33.65819838 -1.06675848 31.38475933 -1.07543945 29.11132812 C-1.08763383 25.83462736 -1.09325778 22.5579694 -1.09765625 19.28125 C-1.10281754 18.27259888 -1.10797882 17.26394775 -1.11329651 16.22473145 C-1.11372955 10.71853538 -0.81646966 5.44689793 0 0 Z " fill="#EC83EF" transform="translate(668,431)"/>
<path d="M0 0 C2.64 0 5.28 0 8 0 C8 3.96 8 7.92 8 12 C5.36 12 2.72 12 0 12 C0 8.04 0 4.08 0 0 Z " fill="#F174F4" transform="translate(574,574)"/>
<path d="M0 0 C2.31 0 4.62 0 7 0 C7 3.96 7 7.92 7 12 C4.69 12 2.38 12 0 12 C0 8.04 0 4.08 0 0 Z " fill="#A81AF7" transform="translate(463,574)"/>
<path d="M0 0 C10.56 0 21.12 0 32 0 C32 0.33 32 0.66 32 1 C22.1 1 12.2 1 2 1 C2 5.62 2 10.24 2 15 C-0.64 15 -3.28 15 -6 15 C-6 14.34 -6 13.68 -6 13 C-4.35 12.67 -2.7 12.34 -1 12 C-0.67 8.04 -0.34 4.08 0 0 Z " fill="#2ADBE0" transform="translate(394,681)"/>
<path d="M0 0 C3.64581687 -0.02887512 7.29160463 -0.04675585 10.9375 -0.0625 C12.49887695 -0.07506836 12.49887695 -0.07506836 14.09179688 -0.08789062 C15.57583008 -0.09272461 15.57583008 -0.09272461 17.08984375 -0.09765625 C18.46450806 -0.10551147 18.46450806 -0.10551147 19.86694336 -0.11352539 C22 0 22 0 23 1 C23.08700342 2.63472882 23.10701063 4.27314055 23.09765625 5.91015625 C23.09443359 6.89951172 23.09121094 7.88886719 23.08789062 8.90820312 C23.07951172 9.94912109 23.07113281 10.99003906 23.0625 12.0625 C23.05798828 13.10728516 23.05347656 14.15207031 23.04882812 15.22851562 C23.03699913 17.8190666 23.02051689 20.40950559 23 23 C22.34 23 21.68 23 21 23 C20.67 16.07 20.34 9.14 20 2 C13.4 1.67 6.8 1.34 0 1 C0 0.67 0 0.34 0 0 Z " fill="#31F4F1" transform="translate(663,644)"/>
<path d="M0 0 C2.64 0 5.28 0 8 0 C8 6.6 8 13.2 8 20 C5.36 20 2.72 20 0 20 C0.66 19.34 1.32 18.68 2 18 C2.99 18 3.98 18 5 18 C5 12.72 5 7.44 5 2 C3.35 1.67 1.7 1.34 0 1 C0 0.67 0 0.34 0 0 Z " fill="#A635D9" transform="translate(574,554)"/>
<path d="M0 0 C6.27 0 12.54 0 19 0 C19 1.98 19 3.96 19 6 C18.67 6 18.34 6 18 6 C18 4.35 18 2.7 18 1 C17.00419922 1.10828125 17.00419922 1.10828125 15.98828125 1.21875 C15.10527344 1.3115625 14.22226562 1.404375 13.3125 1.5 C12.00732422 1.63921875 12.00732422 1.63921875 10.67578125 1.78125 C8 2 8 2 5.23046875 1.96875 C3.02720993 1.74041292 3.02720993 1.74041292 2 3 C1.84193469 4.92478813 1.748865 6.8549921 1.68359375 8.78515625 C1.64169922 9.95498047 1.59980469 11.12480469 1.55664062 12.33007812 C1.51732422 13.56177734 1.47800781 14.79347656 1.4375 16.0625 C1.39431641 17.29806641 1.35113281 18.53363281 1.30664062 19.80664062 C1.20015802 22.87097335 1.09814576 25.93539073 1 29 C0.67 29 0.34 29 0 29 C0 19.43 0 9.86 0 0 Z " fill="#D859EA" transform="translate(378,431)"/>
<path d="M0 0 C2.31 0 4.62 0 7 0 C7 0.33 7 0.66 7 1 C5.35 1 3.7 1 2 1 C2 3.97 2 6.94 2 10 C3.65 10 5.3 10 7 10 C7 10.66 7 11.32 7 12 C4.69 12 2.38 12 0 12 C0 8.04 0 4.08 0 0 Z " fill="#9C25E2" transform="translate(463,574)"/>
<path d="M0 0 C0.33 0 0.66 0 1 0 C1.33 2.64 1.66 5.28 2 8 C-2.95 8 -7.9 8 -13 8 C-13 7.34 -13 6.68 -13 6 C-8.37078475 4.9838308 -4.65537393 5.16203269 0 6 C0 4.02 0 2.04 0 0 Z " fill="#7218B3" transform="translate(483,578)"/>
<path d="M0 0 C0.721875 0.103125 1.44375 0.20625 2.1875 0.3125 C2.1875 1.9625 2.1875 3.6125 2.1875 5.3125 C-1.1125 5.3125 -4.4125 5.3125 -7.8125 5.3125 C-3.50480769 0.38942308 -3.50480769 0.38942308 0 0 Z " fill="#EB5EFC" transform="translate(393.8125,431.6875)"/>
<path d="M0 0 C5.94 0 11.88 0 18 0 C18 0.33 18 0.66 18 1 C13.05 1.33 8.1 1.66 3 2 C2.34 3.65 1.68 5.3 1 7 C0.67 7 0.34 7 0 7 C0 4.69 0 2.38 0 0 Z " fill="#A045DF" transform="translate(421,356)"/>
<path d="M0 0 C2.31 0 4.62 0 7 0 C6.67 0.66 6.34 1.32 6 2 C4.68 2 3.36 2 2 2 C1.67 3.98 1.34 5.96 1 8 C0.67 8 0.34 8 0 8 C0 5.36 0 2.72 0 0 Z " fill="#01141F" transform="translate(389,697)"/>
</svg>
